<?xml version="1.0" standalone="no"?><!DOCTYPE svg PUBLIC "-//W3C//DTD SVG 1.1//EN" "http://www.w3.org/Graphics/SVG/1.1/DTD/svg11.dtd"><svg t="1620752085510" class="icon" viewBox="0 0 1024 1024" version="1.1" xmlns="http://www.w3.org/2000/svg" p-id="7643" xmlns:xlink="http://www.w3.org/1999/xlink" width="200" height="200"><defs><style type="text/css"></style></defs><path d="M310.9 829.8c-7.1 0-13 5.8-13 13 0 7.1 5.8 12.9 13 12.9 7.1 0 13-5.8 13-12.9-0.1-7.1-5.9-13-13-13zM323.8 622.1h181.8c14.2 0.1 25.9-11.6 25.9-25.9v-13c0-14.4-11.7-25.9-25.9-25.9H323.8c-14.4 0-25.9 11.7-25.9 25.9v13c0 14.4 11.7 25.9 25.9 25.9zM674.3 414.5H323.8c-14.4 0-25.9 11.7-25.9 25.9v12.9c0 14.4 11.7 25.9 25.9 25.9h350.4c14.4 0 25.9-11.7 25.9-25.9v-12.9c0.1-14.2-11.5-25.9-25.8-25.9zM349.7 842.8c0 7.1 5.8 12.9 13 12.9h194.7v-25.9H362.7c-7.1 0-13 5.9-13 13z" p-id="7644"></path><path d="M907.9 167.8c0-57.3-46.5-103.7-103.8-103.7H220c-57.3 0-103.8 46.5-103.8 103.8v688c0 57.3 46.5 103.8 103.8 103.8h454l0.3 0.3 232.5-245.2-1.8-1.8h2.9V167.8zM713.1 648.1c-57.3 0-103.8 46.5-103.8 103.8v142.8H233c-28.7 0-51.9-23.2-51.9-51.9V180.9c0-28.7 23.2-51.9 51.9-51.9h558c28.7 0 51.9 23.2 51.9 51.9 0.1 0 0.1 266 0.1 467.2H713.1z" p-id="7645"></path><path d="M674.3 258.8H323.8c-14.4 0-25.9 11.7-25.9 25.9v13c0 14.4 11.7 25.9 25.9 25.9h350.4c14.4 0 25.9-11.7 25.9-25.9v-13c0.1-14.4-11.5-25.9-25.8-25.9z" p-id="7646"></path></svg>