<?xml version="1.0" standalone="no"?><!DOCTYPE svg PUBLIC "-//W3C//DTD SVG 1.1//EN" "http://www.w3.org/Graphics/SVG/1.1/DTD/svg11.dtd"><svg t="1620752075663" class="icon" viewBox="0 0 1024 1024" version="1.1" xmlns="http://www.w3.org/2000/svg" p-id="7507" xmlns:xlink="http://www.w3.org/1999/xlink" width="200" height="200"><defs><style type="text/css"></style></defs><path d="M854.5 920.5H169.3C111.2 920.5 64 873.3 64 815.1V208.8c0-58.2 47.2-105.4 105.4-105.4H354c9.9 0 18.3 5.5 22.8 13.4 2.7 0 5.3 0.5 7.2 2l107.5 91c2.3-0.7 4.8-1.1 7.2-1.1H854.6c58.2 0 105.4 47.2 105.4 105.4v501.1c-0.1 58.1-47.3 105.3-105.5 105.3z m39.4-553.3v-26.4H892c1.1-4.3 1.9-8.6 1.9-13.2 0-29.1-23.6-52.8-52.8-52.8H498.8c-5.1 0-9.9-1.5-13.9-4-7.6 5.2-15.7 6.7-20.3 2.7l-123.2-104h-159c-29.1 0-52.8 23.5-52.8 52.6 0 4.6 0.7 8.9 1.9 13.2h-1.9v171.4h764.1v-39.4h0.2z m0 421.5V472.6H129.8v329.5c0 29.1 23.6 52.8 52.8 52.8h658.8c29.1 0 52.8-23.6 52.8-52.8 0-4.6-0.7-8.9-1.9-13.2h1.8v-0.2z m-84.7 26.4c25 0 45.2-22 45.2-49.2V637.2c0-3.7-3-6.5-6.5-6.5h-13.2c-3.7 0-6.5 3-6.5 6.5V762.3c0 19.7-9.4 26.4-26.4 26.4h-26.4c-7.2 0-13.2 5.9-13.2 13.2s5.9 13.2 13.2 13.2h33.8z m-86.5 0c7.2 0 13.2-5.9 13.2-13.2s-5.9-13.2-13.2-13.2-13.2 5.9-13.2 13.2 5.9 13.2 13.2 13.2z" p-id="7508"></path></svg>